<svg width="28" height="29" viewBox="0 0 28 29" fill="none" xmlns="http://www.w3.org/2000/svg">
<path d="M23.3333 14.4922V8.60148H25.6666V15.6704H23.3333M23.3333 20.383H25.6666V18.0267H23.3333M11.6666 15.6704C14.7816 15.6704 21 17.2491 21 20.383V23.9175H2.33331V20.383C2.33331 17.2491 8.55165 15.6704 11.6666 15.6704ZM11.6666 5.06702C12.9043 5.06702 14.0913 5.56352 14.9665 6.44731C15.8416 7.3311 16.3333 8.52977 16.3333 9.77963C16.3333 11.0295 15.8416 12.2282 14.9665 13.112C14.0913 13.9957 12.9043 14.4922 11.6666 14.4922C10.429 14.4922 9.24198 13.9957 8.36682 13.112C7.49164 12.2282 6.99998 11.0295 6.99998 9.77963C6.99998 8.52977 7.49164 7.3311 8.36682 6.44731C9.24198 5.56352 10.429 5.06702 11.6666 5.06702ZM11.6666 17.9089C8.20165 17.9089 4.54998 19.629 4.54998 20.383V21.679H18.7833V20.383C18.7833 19.629 15.1316 17.9089 11.6666 17.9089ZM11.6666 7.30551C11.0169 7.30551 10.3937 7.56617 9.93424 8.03016C9.47477 8.49415 9.21665 9.12345 9.21665 9.77963C9.21665 10.4358 9.47477 11.0651 9.93424 11.5291C10.3937 11.9931 11.0169 12.2538 11.6666 12.2538C12.3164 12.2538 12.9396 11.9931 13.3991 11.5291C13.8585 11.0651 14.1166 10.4358 14.1166 9.77963C14.1166 9.12345 13.8585 8.49415 13.3991 8.03016C12.9396 7.56617 12.3164 7.30551 11.6666 7.30551Z" fill="black"/>
</svg>
